<svg width="188" height="54" viewBox="0 0 188 54" fill="none" xmlns="http://www.w3.org/2000/svg">
<path d="M35 24.5C35 14.835 27.165 7 17.5 7C7.83502 7 0 14.835 0 24.5C0 34.165 7.83502 42 17.5 42C27.165 42 35 34.165 35 24.5Z" fill="#00CA78"/>
<path d="M17.5 26C18.3284 26 19 25.3284 19 24.5C19 23.6716 18.3284 23 17.5 23C16.6716 23 16 23.6716 16 24.5C16 25.3284 16.6716 26 17.5 26Z" fill="white"/>
<path d="M8.88663 35H17.2386C23.2226 35 27.2866 30.904 27.2866 23.832C27.2866 17.24 23.5426 13.24 16.9506 13.24H8.88663V35ZM12.7266 31.64V17.464H16.8546C21.1746 17.464 23.4466 19.992 23.4466 24.344C23.4466 28.696 21.3026 31.64 17.1106 31.64H12.7266Z" fill="white"/>
<path d="M43.875 33H40.4766V20.3203H43.875V33ZM40.2773 17.0391C40.2773 16.5312 40.4453 16.1133 40.7812 15.7852C41.125 15.457 41.5898 15.293 42.1758 15.293C42.7539 15.293 43.2148 15.457 43.5586 15.7852C43.9023 16.1133 44.0742 16.5312 44.0742 17.0391C44.0742 17.5547 43.8984 17.9766 43.5469 18.3047C43.2031 18.6328 42.7461 18.7969 42.1758 18.7969C41.6055 18.7969 41.1445 18.6328 40.793 18.3047C40.4492 17.9766 40.2773 17.5547 40.2773 17.0391ZM46.1836 26.5664C46.1836 24.6211 46.6445 23.0547 47.5664 21.8672C48.4961 20.6797 49.7461 20.0859 51.3164 20.0859C52.707 20.0859 53.7891 20.5625 54.5625 21.5156L54.7031 20.3203H57.7734V32.5781C57.7734 33.6875 57.5195 34.6523 57.0117 35.4727C56.5117 36.293 55.8047 36.918 54.8906 37.3477C53.9766 37.7773 52.9062 37.9922 51.6797 37.9922C50.75 37.9922 49.8438 37.8047 48.9609 37.4297C48.0781 37.0625 47.4102 36.5859 46.957 36L48.457 33.9375C49.3008 34.8828 50.3242 35.3555 51.5273 35.3555C52.4258 35.3555 53.125 35.1133 53.625 34.6289C54.125 34.1523 54.375 33.4727 54.375 32.5898V31.9102C53.5938 32.793 52.5664 33.2344 51.293 33.2344C49.7695 33.2344 48.5352 32.6406 47.5898 31.4531C46.6523 30.2578 46.1836 28.6758 46.1836 26.707V26.5664ZM49.5703 26.8125C49.5703 27.9609 49.8008 28.8633 50.2617 29.5195C50.7227 30.168 51.3555 30.4922 52.1602 30.4922C53.1914 30.4922 53.9297 30.1055 54.375 29.332V24C53.9219 23.2266 53.1914 22.8398 52.1836 22.8398C51.3711 22.8398 50.7305 23.1719 50.2617 23.8359C49.8008 24.5 49.5703 25.4922 49.5703 26.8125ZM63.9609 33H60.5625V20.3203H63.9609V33ZM60.3633 17.0391C60.3633 16.5312 60.5312 16.1133 60.8672 15.7852C61.2109 15.457 61.6758 15.293 62.2617 15.293C62.8398 15.293 63.3008 15.457 63.6445 15.7852C63.9883 16.1133 64.1602 16.5312 64.1602 17.0391C64.1602 17.5547 63.9844 17.9766 63.6328 18.3047C63.2891 18.6328 62.832 18.7969 62.2617 18.7969C61.6914 18.7969 61.2305 18.6328 60.8789 18.3047C60.5352 17.9766 60.3633 17.5547 60.3633 17.0391ZM70.8164 17.2031V20.3203H72.9844V22.8047H70.8164V29.1328C70.8164 29.6016 70.9062 29.9375 71.0859 30.1406C71.2656 30.3438 71.6094 30.4453 72.1172 30.4453C72.4922 30.4453 72.8242 30.418 73.1133 30.3633V32.9297C72.4492 33.1328 71.7656 33.2344 71.0625 33.2344C68.6875 33.2344 67.4766 32.0352 67.4297 29.6367V22.8047H65.5781V20.3203H67.4297V17.2031H70.8164ZM82.2188 33C82.0625 32.6953 81.9492 32.3164 81.8789 31.8633C81.0586 32.7773 79.9922 33.2344 78.6797 33.2344C77.4375 33.2344 76.4062 32.875 75.5859 32.1562C74.7734 31.4375 74.3672 30.5312 74.3672 29.4375C74.3672 28.0938 74.8633 27.0625 75.8555 26.3438C76.8555 25.625 78.2969 25.2617 80.1797 25.2539H81.7383V24.5273C81.7383 23.9414 81.5859 23.4727 81.2812 23.1211C80.9844 22.7695 80.5117 22.5938 79.8633 22.5938C79.293 22.5938 78.8438 22.7305 78.5156 23.0039C78.1953 23.2773 78.0352 23.6523 78.0352 24.1289H74.6484C74.6484 23.3945 74.875 22.7148 75.3281 22.0898C75.7812 21.4648 76.4219 20.9766 77.25 20.625C78.0781 20.2656 79.0078 20.0859 80.0391 20.0859C81.6016 20.0859 82.8398 20.4805 83.7539 21.2695C84.6758 22.0508 85.1367 23.1523 85.1367 24.5742V30.0703C85.1445 31.2734 85.3125 32.1836 85.6406 32.8008V33H82.2188ZM79.418 30.6445C79.918 30.6445 80.3789 30.5352 80.8008 30.3164C81.2227 30.0898 81.5352 29.7891 81.7383 29.4141V27.2344H80.4727C78.7773 27.2344 77.875 27.8203 77.7656 28.9922L77.7539 29.1914C77.7539 29.6133 77.9023 29.9609 78.1992 30.2344C78.4961 30.5078 78.9023 30.6445 79.418 30.6445ZM91.3125 33H87.9141V15H91.3125V33ZM94.2891 31.3359C94.2891 30.7969 94.4688 30.3594 94.8281 30.0234C95.1953 29.6875 95.6523 29.5195 96.1992 29.5195C96.7539 29.5195 97.2109 29.6875 97.5703 30.0234C97.9375 30.3594 98.1211 30.7969 98.1211 31.3359C98.1211 31.8672 97.9414 32.3008 97.582 32.6367C97.2227 32.9648 96.7617 33.1289 96.1992 33.1289C95.6445 33.1289 95.1875 32.9648 94.8281 32.6367C94.4688 32.3008 94.2891 31.8672 94.2891 31.3359ZM108.445 33C108.289 32.6953 108.176 32.3164 108.105 31.8633C107.285 32.7773 106.219 33.2344 104.906 33.2344C103.664 33.2344 102.633 32.875 101.812 32.1562C101 31.4375 100.594 30.5312 100.594 29.4375C100.594 28.0938 101.09 27.0625 102.082 26.3438C103.082 25.625 104.523 25.2617 106.406 25.2539H107.965V24.5273C107.965 23.9414 107.812 23.4727 107.508 23.1211C107.211 22.7695 106.738 22.5938 106.09 22.5938C105.52 22.5938 105.07 22.7305 104.742 23.0039C104.422 23.2773 104.262 23.6523 104.262 24.1289H100.875C100.875 23.3945 101.102 22.7148 101.555 22.0898C102.008 21.4648 102.648 20.9766 103.477 20.625C104.305 20.2656 105.234 20.0859 106.266 20.0859C107.828 20.0859 109.066 20.4805 109.98 21.2695C110.902 22.0508 111.363 23.1523 111.363 24.5742V30.0703C111.371 31.2734 111.539 32.1836 111.867 32.8008V33H108.445ZM105.645 30.6445C106.145 30.6445 106.605 30.5352 107.027 30.3164C107.449 30.0898 107.762 29.7891 107.965 29.4141V27.2344H106.699C105.004 27.2344 104.102 27.8203 103.992 28.9922L103.98 29.1914C103.98 29.6133 104.129 29.9609 104.426 30.2344C104.723 30.5078 105.129 30.6445 105.645 30.6445ZM119.238 30.5039C119.863 30.5039 120.371 30.332 120.762 29.9883C121.152 29.6445 121.355 29.1875 121.371 28.6172H124.547C124.539 29.4766 124.305 30.2656 123.844 30.9844C123.383 31.6953 122.75 32.25 121.945 32.6484C121.148 33.0391 120.266 33.2344 119.297 33.2344C117.484 33.2344 116.055 32.6602 115.008 31.5117C113.961 30.3555 113.438 28.7617 113.438 26.7305V26.5078C113.438 24.5547 113.957 22.9961 114.996 21.832C116.035 20.668 117.461 20.0859 119.273 20.0859C120.859 20.0859 122.129 20.5391 123.082 21.4453C124.043 22.3438 124.531 23.543 124.547 25.043H121.371C121.355 24.3867 121.152 23.8555 120.762 23.4492C120.371 23.0352 119.855 22.8281 119.215 22.8281C118.426 22.8281 117.828 23.1172 117.422 23.6953C117.023 24.2656 116.824 25.1953 116.824 26.4844V26.8359C116.824 28.1406 117.023 29.0781 117.422 29.6484C117.82 30.2188 118.426 30.5039 119.238 30.5039ZM131.754 30.5039C132.379 30.5039 132.887 30.332 133.277 29.9883C133.668 29.6445 133.871 29.1875 133.887 28.6172H137.062C137.055 29.4766 136.82 30.2656 136.359 30.9844C135.898 31.6953 135.266 32.25 134.461 32.6484C133.664 33.0391 132.781 33.2344 131.812 33.2344C130 33.2344 128.57 32.6602 127.523 31.5117C126.477 30.3555 125.953 28.7617 125.953 26.7305V26.5078C125.953 24.5547 126.473 22.9961 127.512 21.832C128.551 20.668 129.977 20.0859 131.789 20.0859C133.375 20.0859 134.645 20.5391 135.598 21.4453C136.559 22.3438 137.047 23.543 137.062 25.043H133.887C133.871 24.3867 133.668 23.8555 133.277 23.4492C132.887 23.0352 132.371 22.8281 131.73 22.8281C130.941 22.8281 130.344 23.1172 129.938 23.6953C129.539 24.2656 129.34 25.1953 129.34 26.4844V26.8359C129.34 28.1406 129.539 29.0781 129.938 29.6484C130.336 30.2188 130.941 30.5039 131.754 30.5039ZM144.27 30.5039C144.895 30.5039 145.402 30.332 145.793 29.9883C146.184 29.6445 146.387 29.1875 146.402 28.6172H149.578C149.57 29.4766 149.336 30.2656 148.875 30.9844C148.414 31.6953 147.781 32.25 146.977 32.6484C146.18 33.0391 145.297 33.2344 144.328 33.2344C142.516 33.2344 141.086 32.6602 140.039 31.5117C138.992 30.3555 138.469 28.7617 138.469 26.7305V26.5078C138.469 24.5547 138.988 22.9961 140.027 21.832C141.066 20.668 142.492 20.0859 144.305 20.0859C145.891 20.0859 147.16 20.5391 148.113 21.4453C149.074 22.3438 149.562 23.543 149.578 25.043H146.402C146.387 24.3867 146.184 23.8555 145.793 23.4492C145.402 23.0352 144.887 22.8281 144.246 22.8281C143.457 22.8281 142.859 23.1172 142.453 23.6953C142.055 24.2656 141.855 25.1953 141.855 26.4844V26.8359C141.855 28.1406 142.055 29.0781 142.453 29.6484C142.852 30.2188 143.457 30.5039 144.27 30.5039ZM157.348 33.2344C155.488 33.2344 153.973 32.6641 152.801 31.5234C151.637 30.3828 151.055 28.8633 151.055 26.9648V26.6367C151.055 25.3633 151.301 24.2266 151.793 23.2266C152.285 22.2188 152.98 21.4453 153.879 20.9062C154.785 20.3594 155.816 20.0859 156.973 20.0859C158.707 20.0859 160.07 20.6328 161.062 21.7266C162.062 22.8203 162.562 24.3711 162.562 26.3789V27.7617H154.488C154.598 28.5898 154.926 29.2539 155.473 29.7539C156.027 30.2539 156.727 30.5039 157.57 30.5039C158.875 30.5039 159.895 30.0312 160.629 29.0859L162.293 30.9492C161.785 31.668 161.098 32.2305 160.23 32.6367C159.363 33.0352 158.402 33.2344 157.348 33.2344ZM156.961 22.8281C156.289 22.8281 155.742 23.0547 155.32 23.5078C154.906 23.9609 154.641 24.6094 154.523 25.4531H159.234V25.1836C159.219 24.4336 159.016 23.8555 158.625 23.4492C158.234 23.0352 157.68 22.8281 156.961 22.8281ZM171.363 29.4961C171.363 29.082 171.156 28.7578 170.742 28.5234C170.336 28.2812 169.68 28.0664 168.773 27.8789C165.758 27.2461 164.25 25.9648 164.25 24.0352C164.25 22.9102 164.715 21.9727 165.645 21.2227C166.582 20.4648 167.805 20.0859 169.312 20.0859C170.922 20.0859 172.207 20.4648 173.168 21.2227C174.137 21.9805 174.621 22.9648 174.621 24.1758H171.234C171.234 23.6914 171.078 23.293 170.766 22.9805C170.453 22.6602 169.965 22.5 169.301 22.5C168.73 22.5 168.289 22.6289 167.977 22.8867C167.664 23.1445 167.508 23.4727 167.508 23.8711C167.508 24.2461 167.684 24.5508 168.035 24.7852C168.395 25.0117 168.996 25.2109 169.84 25.3828C170.684 25.5469 171.395 25.7344 171.973 25.9453C173.762 26.6016 174.656 27.7383 174.656 29.3555C174.656 30.5117 174.16 31.4492 173.168 32.168C172.176 32.8789 170.895 33.2344 169.324 33.2344C168.262 33.2344 167.316 33.0469 166.488 32.6719C165.668 32.2891 165.023 31.7695 164.555 31.1133C164.086 30.4492 163.852 29.7344 163.852 28.9688H167.062C167.094 29.5703 167.316 30.0312 167.73 30.3516C168.145 30.6719 168.699 30.832 169.395 30.832C170.043 30.832 170.531 30.7109 170.859 30.4688C171.195 30.2188 171.363 29.8945 171.363 29.4961ZM183.715 29.4961C183.715 29.082 183.508 28.7578 183.094 28.5234C182.688 28.2812 182.031 28.0664 181.125 27.8789C178.109 27.2461 176.602 25.9648 176.602 24.0352C176.602 22.9102 177.066 21.9727 177.996 21.2227C178.934 20.4648 180.156 20.0859 181.664 20.0859C183.273 20.0859 184.559 20.4648 185.52 21.2227C186.488 21.9805 186.973 22.9648 186.973 24.1758H183.586C183.586 23.6914 183.43 23.293 183.117 22.9805C182.805 22.6602 182.316 22.5 181.652 22.5C181.082 22.5 180.641 22.6289 180.328 22.8867C180.016 23.1445 179.859 23.4727 179.859 23.8711C179.859 24.2461 180.035 24.5508 180.387 24.7852C180.746 25.0117 181.348 25.2109 182.191 25.3828C183.035 25.5469 183.746 25.7344 184.324 25.9453C186.113 26.6016 187.008 27.7383 187.008 29.3555C187.008 30.5117 186.512 31.4492 185.52 32.168C184.527 32.8789 183.246 33.2344 181.676 33.2344C180.613 33.2344 179.668 33.0469 178.84 32.6719C178.02 32.2891 177.375 31.7695 176.906 31.1133C176.438 30.4492 176.203 29.7344 176.203 28.9688H179.414C179.445 29.5703 179.668 30.0312 180.082 30.3516C180.496 30.6719 181.051 30.832 181.746 30.832C182.395 30.832 182.883 30.7109 183.211 30.4688C183.547 30.2188 183.715 29.8945 183.715 29.4961Z" fill="white"/>
</svg>
