<svg width="188" height="54" viewBox="0 0 188 54" fill="none" xmlns="http://www.w3.org/2000/svg">
<path d="M35 24.5C35 14.835 27.165 7 17.5 7C7.83502 7 0 14.835 0 24.5C0 34.165 7.83502 42 17.5 42C27.165 42 35 34.165 35 24.5Z" fill="#00CA78"/>
<path d="M17.5 26C18.3284 26 19 25.3284 19 24.5C19 23.6716 18.3284 23 17.5 23C16.6716 23 16 23.6716 16 24.5C16 25.3284 16.6716 26 17.5 26Z" fill="white"/>
<path d="M8.88663 35H17.2386C23.2226 35 27.2866 30.904 27.2866 23.832C27.2866 17.24 23.5426 13.24 16.9506 13.24H8.88663V35ZM12.7266 31.64V17.464H16.8546C21.1746 17.464 23.4466 19.992 23.4466 24.344C23.4466 28.696 21.3026 31.64 17.1106 31.64H12.7266Z" fill="white"/>
<path d="M43.875 33H40.4766V20.3203H43.875V33ZM40.2773 17.0391C40.2773 16.5312 40.4453 16.1133 40.7812 15.7852C41.125 15.457 41.5898 15.293 42.1758 15.293C42.7539 15.293 43.2148 15.457 43.5586 15.7852C43.9023 16.1133 44.0742 16.5312 44.0742 17.0391C44.0742 17.5547 43.8984 17.9766 43.5469 18.3047C43.2031 18.6328 42.7461 18.7969 42.1758 18.7969C41.6055 18.7969 41.1445 18.6328 40.793 18.3047C40.4492 17.9766 40.2773 17.5547 40.2773 17.0391ZM46.1836 26.5664C46.1836 24.6211 46.6445 23.0547 47.5664 21.8672C48.4961 20.6797 49.7461 20.0859 51.3164 20.0859C52.707 20.0859 53.7891 20.5625 54.5625 21.5156L54.7031 20.3203H57.7734V32.5781C57.7734 33.6875 57.5195 34.6523 57.0117 35.4727C56.5117 36.293 55.8047 36.918 54.8906 37.3477C53.9766 37.7773 52.9062 37.9922 51.6797 37.9922C50.75 37.9922 49.8438 37.8047 48.9609 37.4297C48.0781 37.0625 47.4102 36.5859 46.957 36L48.457 33.9375C49.3008 34.8828 50.3242 35.3555 51.5273 35.3555C52.4258 35.3555 53.125 35.1133 53.625 34.6289C54.125 34.1523 54.375 33.4727 54.375 32.5898V31.9102C53.5938 32.793 52.5664 33.2344 51.293 33.2344C49.7695 33.2344 48.5352 32.6406 47.5898 31.4531C46.6523 30.2578 46.1836 28.6758 46.1836 26.707V26.5664ZM49.5703 26.8125C49.5703 27.9609 49.8008 28.8633 50.2617 29.5195C50.7227 30.168 51.3555 30.4922 52.1602 30.4922C53.1914 30.4922 53.9297 30.1055 54.375 29.332V24C53.9219 23.2266 53.1914 22.8398 52.1836 22.8398C51.3711 22.8398 50.7305 23.1719 50.2617 23.8359C49.8008 24.5 49.5703 25.4922 49.5703 26.8125ZM63.9609 33H60.5625V20.3203H63.9609V33ZM60.3633 17.0391C60.3633 16.5312 60.5312 16.1133 60.8672 15.7852C61.2109 15.457 61.6758 15.293 62.2617 15.293C62.8398 15.293 63.3008 15.457 63.6445 15.7852C63.9883 16.1133 64.1602 16.5312 64.1602 17.0391C64.1602 17.5547 63.9844 17.9766 63.6328 18.3047C63.2891 18.6328 62.832 18.7969 62.2617 18.7969C61.6914 18.7969 61.2305 18.6328 60.8789 18.3047C60.5352 17.9766 60.3633 17.5547 60.3633 17.0391ZM70.8164 17.2031V20.3203H72.9844V22.8047H70.8164V29.1328C70.8164 29.6016 70.9062 29.9375 71.0859 30.1406C71.2656 30.3438 71.6094 30.4453 72.1172 30.4453C72.4922 30.4453 72.8242 30.418 73.1133 30.3633V32.9297C72.4492 33.1328 71.7656 33.2344 71.0625 33.2344C68.6875 33.2344 67.4766 32.0352 67.4297 29.6367V22.8047H65.5781V20.3203H67.4297V17.2031H70.8164ZM82.2188 33C82.0625 32.6953 81.9492 32.3164 81.8789 31.8633C81.0586 32.7773 79.9922 33.2344 78.6797 33.2344C77.4375 33.2344 76.4062 32.875 75.5859 32.1562C74.7734 31.4375 74.3672 30.5312 74.3672 29.4375C74.3672 28.0938 74.8633 27.0625 75.8555 26.3438C76.8555 25.625 78.2969 25.2617 80.1797 25.2539H81.7383V24.5273C81.7383 23.9414 81.5859 23.4727 81.2812 23.1211C80.9844 22.7695 80.5117 22.5938 79.8633 22.5938C79.293 22.5938 78.8438 22.7305 78.5156 23.0039C78.1953 23.2773 78.0352 23.6523 78.0352 24.1289H74.6484C74.6484 23.3945 74.875 22.7148 75.3281 22.0898C75.7812 21.4648 76.4219 20.9766 77.25 20.625C78.0781 20.2656 79.0078 20.0859 80.0391 20.0859C81.6016 20.0859 82.8398 20.4805 83.7539 21.2695C84.6758 22.0508 85.1367 23.1523 85.1367 24.5742V30.0703C85.1445 31.2734 85.3125 32.1836 85.6406 32.8008V33H82.2188ZM79.418 30.6445C79.918 30.6445 80.3789 30.5352 80.8008 30.3164C81.2227 30.0898 81.5352 29.7891 81.7383 29.4141V27.2344H80.4727C78.7773 27.2344 77.875 27.8203 77.7656 28.9922L77.7539 29.1914C77.7539 29.6133 77.9023 29.9609 78.1992 30.2344C78.4961 30.5078 78.9023 30.6445 79.418 30.6445ZM91.3125 33H87.9141V15H91.3125V33ZM94.2891 31.3359C94.2891 30.7969 94.4688 30.3594 94.8281 30.0234C95.1953 29.6875 95.6523 29.5195 96.1992 29.5195C96.7539 29.5195 97.2109 29.6875 97.5703 30.0234C97.9375 30.3594 98.1211 30.7969 98.1211 31.3359C98.1211 31.8672 97.9414 32.3008 97.582 32.6367C97.2227 32.9648 96.7617 33.1289 96.1992 33.1289C95.6445 33.1289 95.1875 32.9648 94.8281 32.6367C94.4688 32.3008 94.2891 31.8672 94.2891 31.3359ZM108.445 33C108.289 32.6953 108.176 32.3164 108.105 31.8633C107.285 32.7773 106.219 33.2344 104.906 33.2344C103.664 33.2344 102.633 32.875 101.812 32.1562C101 31.4375 100.594 30.5312 100.594 29.4375C100.594 28.0938 101.09 27.0625 102.082 26.3438C103.082 25.625 104.523 25.2617 106.406 25.2539H107.965V24.5273C107.965 23.9414 107.812 23.4727 107.508 23.1211C107.211 22.7695 106.738 22.5938 106.09 22.5938C105.52 22.5938 105.07 22.7305 104.742 23.0039C104.422 23.2773 104.262 23.6523 104.262 24.1289H100.875C100.875 23.3945 101.102 22.7148 101.555 22.0898C102.008 21.4648 102.648 20.9766 103.477 20.625C104.305 20.2656 105.234 20.0859 106.266 20.0859C107.828 20.0859 109.066 20.4805 109.98 21.2695C110.902 22.0508 111.363 23.1523 111.363 24.5742V30.0703C111.371 31.2734 111.539 32.1836 111.867 32.8008V33H108.445ZM105.645 30.6445C106.145 30.6445 106.605 30.5352 107.027 30.3164C107.449 30.0898 107.762 29.7891 107.965 29.4141V27.2344H106.699C105.004 27.2344 104.102 27.8203 103.992 28.9922L103.98 29.1914C103.98 29.6133 104.129 29.9609 104.426 30.2344C104.723 30.5078 105.129 30.6445 105.645 30.6445ZM119.238 30.5039C119.863 30.5039 120.371 30.332 120.762 29.9883C121.152 29.6445 121.355 29.1875 121.371 28.6172H124.547C124.539 29.4766 124.305 30.2656 123.844 30.9844C123.383 31.6953 122.75 32.25 121.945 32.6484C121.148 33.0391 120.266 33.2344 119.297 33.2344C117.484 33.2344 116.055 32.6602 115.008 31.5117C113.961 30.3555 113.438 28.7617 113.438 26.7305V26.5078C113.438 24.5547 113.957 22.9961 114.996 21.832C116.035 20.668 117.461 20.0859 119.273 20.0859C120.859 20.0859 122.129 20.5391 123.082 21.4453C124.043 22.3438 124.531 23.543 124.547 25.043H121.371C121.355 24.3867 121.152 23.8555 120.762 23.4492C120.371 23.0352 119.855 22.8281 119.215 22.8281C118.426 22.8281 117.828 23.1172 117.422 23.6953C117.023 24.2656 116.824 25.1953 116.824 26.4844V26.8359C116.824 28.1406 117.023 29.0781 117.422 29.6484C117.82 30.2188 118.426 30.5039 119.238 30.5039ZM131.754 30.5039C132.379 30.5039 132.887 30.332 133.277 29.9883C133.668 29.6445 133.871 29.1875 133.887 28.6172H137.062C137.055 29.4766 136.82 30.2656 136.359 30.9844C135.898 31.6953 135.266 32.25 134.461 32.6484C133.664 33.0391 132.781 33.2344 131.812 33.2344C130 33.2344 128.57 32.6602 127.523 31.5117C126.477 30.3555 125.953 28.7617 125.953 26.7305V26.5078C125.953 24.5547 126.473 22.9961 127.512 21.832C128.551 20.668 129.977 20.0859 131.789 20.0859C133.375 20.0859 134.645 20.5391 135.598 21.4453C136.559 22.3438 137.047 23.543 137.062 25.043H133.887C133.871 24.3867 133.668 23.8555 133.277 23.4492C132.887 23.0352 132.371 22.8281 131.73 22.8281C130.941 22.8281 130.344 23.1172 129.938 23.6953C129.539 24.2656 129.34 25.1953 129.34 26.4844V26.8359C129.34 28.1406 129.539 29.0781 129.938 29.6484C130.336 30.2188 130.941 30.5039 131.754 30.5039ZM144.832 33.2344C142.973 33.2344 141.457 32.6641 140.285 31.5234C139.121 30.3828 138.539 28.8633 138.539 26.9648V26.6367C138.539 25.3633 138.785 24.2266 139.277 23.2266C139.77 22.2188 140.465 21.4453 141.363 20.9062C142.27 20.3594 143.301 20.0859 144.457 20.0859C146.191 20.0859 147.555 20.6328 148.547 21.7266C149.547 22.8203 150.047 24.3711 150.047 26.3789V27.7617H141.973C142.082 28.5898 142.41 29.2539 142.957 29.7539C143.512 30.2539 144.211 30.5039 145.055 30.5039C146.359 30.5039 147.379 30.0312 148.113 29.0859L149.777 30.9492C149.27 31.668 148.582 32.2305 147.715 32.6367C146.848 33.0352 145.887 33.2344 144.832 33.2344ZM144.445 22.8281C143.773 22.8281 143.227 23.0547 142.805 23.5078C142.391 23.9609 142.125 24.6094 142.008 25.4531H146.719V25.1836C146.703 24.4336 146.5 23.8555 146.109 23.4492C145.719 23.0352 145.164 22.8281 144.445 22.8281ZM158.848 29.4961C158.848 29.082 158.641 28.7578 158.227 28.5234C157.82 28.2812 157.164 28.0664 156.258 27.8789C153.242 27.2461 151.734 25.9648 151.734 24.0352C151.734 22.9102 152.199 21.9727 153.129 21.2227C154.066 20.4648 155.289 20.0859 156.797 20.0859C158.406 20.0859 159.691 20.4648 160.652 21.2227C161.621 21.9805 162.105 22.9648 162.105 24.1758H158.719C158.719 23.6914 158.562 23.293 158.25 22.9805C157.938 22.6602 157.449 22.5 156.785 22.5C156.215 22.5 155.773 22.6289 155.461 22.8867C155.148 23.1445 154.992 23.4727 154.992 23.8711C154.992 24.2461 155.168 24.5508 155.52 24.7852C155.879 25.0117 156.48 25.2109 157.324 25.3828C158.168 25.5469 158.879 25.7344 159.457 25.9453C161.246 26.6016 162.141 27.7383 162.141 29.3555C162.141 30.5117 161.645 31.4492 160.652 32.168C159.66 32.8789 158.379 33.2344 156.809 33.2344C155.746 33.2344 154.801 33.0469 153.973 32.6719C153.152 32.2891 152.508 31.7695 152.039 31.1133C151.57 30.4492 151.336 29.7344 151.336 28.9688H154.547C154.578 29.5703 154.801 30.0312 155.215 30.3516C155.629 30.6719 156.184 30.832 156.879 30.832C157.527 30.832 158.016 30.7109 158.344 30.4688C158.68 30.2188 158.848 29.8945 158.848 29.4961ZM171.199 29.4961C171.199 29.082 170.992 28.7578 170.578 28.5234C170.172 28.2812 169.516 28.0664 168.609 27.8789C165.594 27.2461 164.086 25.9648 164.086 24.0352C164.086 22.9102 164.551 21.9727 165.48 21.2227C166.418 20.4648 167.641 20.0859 169.148 20.0859C170.758 20.0859 172.043 20.4648 173.004 21.2227C173.973 21.9805 174.457 22.9648 174.457 24.1758H171.07C171.07 23.6914 170.914 23.293 170.602 22.9805C170.289 22.6602 169.801 22.5 169.137 22.5C168.566 22.5 168.125 22.6289 167.812 22.8867C167.5 23.1445 167.344 23.4727 167.344 23.8711C167.344 24.2461 167.52 24.5508 167.871 24.7852C168.23 25.0117 168.832 25.2109 169.676 25.3828C170.52 25.5469 171.23 25.7344 171.809 25.9453C173.598 26.6016 174.492 27.7383 174.492 29.3555C174.492 30.5117 173.996 31.4492 173.004 32.168C172.012 32.8789 170.73 33.2344 169.16 33.2344C168.098 33.2344 167.152 33.0469 166.324 32.6719C165.504 32.2891 164.859 31.7695 164.391 31.1133C163.922 30.4492 163.688 29.7344 163.688 28.9688H166.898C166.93 29.5703 167.152 30.0312 167.566 30.3516C167.98 30.6719 168.535 30.832 169.23 30.832C169.879 30.832 170.367 30.7109 170.695 30.4688C171.031 30.2188 171.199 29.8945 171.199 29.4961Z" fill="black"/>
</svg>
