<svg width="111" height="111" viewBox="0 0 111 111" fill="none" xmlns="http://www.w3.org/2000/svg">
<path opacity="0.1" d="M55.5 111C86.1518 111 111 86.1518 111 55.5C111 24.8482 86.1518 0 55.5 0C24.8482 0 0 24.8482 0 55.5C0 86.1518 24.8482 111 55.5 111Z" fill="#FFACCF"/>
<path d="M73 27H46C43.2386 27 41 29.2386 41 32V79C41 81.7614 43.2386 84 46 84H73C75.7614 84 78 81.7614 78 79V32C78 29.2386 75.7614 27 73 27Z" fill="black"/>
<path d="M59.5 78C61.433 78 63 76.433 63 74.5C63 72.567 61.433 71 59.5 71C57.567 71 56 72.567 56 74.5C56 76.433 57.567 78 59.5 78Z" fill="white"/>
<path d="M40.46 44.352L41.44 43.638L39.55 41.454L42.35 40.81L41.972 39.648L39.326 40.782L39.578 37.912H38.36L38.612 40.782L35.966 39.648L35.588 40.81L38.388 41.454L36.484 43.638L37.478 44.352L38.962 41.874L40.46 44.352ZM48.4034 44.352L49.3834 43.638L47.4934 41.454L50.2934 40.81L49.9154 39.648L47.2694 40.782L47.5214 37.912H46.3034L46.5554 40.782L43.9094 39.648L43.5314 40.81L46.3314 41.454L44.4274 43.638L45.4214 44.352L46.9054 41.874L48.4034 44.352ZM56.3467 44.352L57.3267 43.638L55.4367 41.454L58.2367 40.81L57.8587 39.648L55.2127 40.782L55.4647 37.912H54.2467L54.4987 40.782L51.8527 39.648L51.4747 40.81L54.2747 41.454L52.3707 43.638L53.3647 44.352L54.8487 41.874L56.3467 44.352ZM64.2901 44.352L65.2701 43.638L63.3801 41.454L66.1801 40.81L65.8021 39.648L63.1561 40.782L63.4081 37.912H62.1901L62.4421 40.782L59.7961 39.648L59.4181 40.81L62.2181 41.454L60.3141 43.638L61.3081 44.352L62.7921 41.874L64.2901 44.352Z" fill="#FFACCF"/>
<defs>
<linearGradient id="paint0_linear" x1="55.5" y1="0" x2="55.5" y2="111" gradientUnits="userSpaceOnUse">
<stop stop-color="#FFACCF"/>
<stop offset="1" stop-color="#FFACCF"/>
</linearGradient>
</defs>
</svg>
